<?xml version="1.0" ?><svg style="enable-background:new 0 0 48 48;" version="1.1" viewBox="0 0 48 48" xml:space="preserve" xmlns="http://www.w3.org/2000/svg" xmlns:xlink="http://www.w3.org/1999/xlink"><g id="Icons"><g><polygon points="11.30485,18.45805 11.30485,29.96905 24.00005,31.75635 36.69505,29.96905     36.69505,18.45805 24.37795,16.80745   " style="fill:#F4F4F4;"/><g><path d="M21.46315,28.48205h-1.0547v-6.7207c-0.2539,0.2422-0.5869,0.4844-0.999,0.7265     c-0.4122,0.2422-0.7823,0.4239-1.1104,0.545v-1.0196c0.5898-0.2773,1.1055-0.6133,1.5469-1.0078     c0.4414-0.3945,0.7539-0.7773,0.9375-1.1484h0.6797V28.48205L21.46315,28.48205z" style="fill:#CCCCCC;"/><path d="M29.70725,27.46835v1.0137h-5.6777c-0.0078-0.2539,0.0332-0.4981,0.123-0.7325     c0.1445-0.3867,0.376-0.7675,0.6944-1.1425c0.3183-0.375,0.7783-0.8086,1.3798-1.3008c0.9336-0.7656,1.5645-1.3721,1.8926-1.8194     c0.3281-0.4472,0.4922-0.8701,0.4922-1.2685c0-0.418-0.1494-0.7705-0.4482-1.0576c-0.2989-0.2871-0.6885-0.4307-1.169-0.4307     c-0.5078,0-0.914,0.1524-1.2187,0.457c-0.3047,0.3047-0.459,0.7266-0.4629,1.2657l-1.084-0.1114     c0.0742-0.8086,0.3535-1.4248,0.8379-1.8486s1.1348-0.6357,1.9512-0.6357c0.8242,0,1.4765,0.2285,1.957,0.6855     c0.4805,0.457,0.7207,1.0235,0.7207,1.6992c0,0.3438-0.0703,0.6817-0.211,1.0137c-0.1406,0.332-0.374,0.6816-0.7002,1.0488     c-0.3261,0.3672-0.8681,0.8711-1.6259,1.5118c-0.6328,0.5312-1.0391,0.8916-1.2188,1.081     c-0.1797,0.1895-0.3281,0.3799-0.4453,0.5713H29.70725z" style="fill:#CCCCCC;"/></g><path d="M11.30495,29.96905v2.1968c0,1.2449,1.0091,2.2541,2.2541,2.2541h20.882    c1.2449,0,2.2541-1.0092,2.2541-2.2541v-2.1968H11.30495z" style="fill:#DBDBDB;"/><path d="M34.14645,13.58005h-20.2931c-1.4075,0-2.5485,1.141-2.5485,2.5485v2.3295h25.39v-2.3295    C36.69485,14.72105,35.55395,13.58005,34.14645,13.58005z" style="fill:#F43734;"/><g><circle cx="16.20317" cy="15.85157" r="0.62365" style="fill:#C11E1E;"/><circle cx="32.03885" cy="15.85157" r="0.62367" style="fill:#C11E1E;"/></g></g></g></svg>