<svg width="24" height="24" xmlns="http://www.w3.org/2000/svg">

 <g>
  <title>background</title>
  <rect fill="none" id="canvas_background" height="402" width="582" y="-1" x="-1"/>
 </g>
 <g>
  <title>Layer 1</title>
  <path fill="#ffffff" id="svg_1" d="m18,21l-11,0a4,4 0 0 1 -4,-4l0,-12c0,-1.1 0.9,-2 2,-2l10,0a2,2 0 0 1 2,2l2,0a2,2 0 0 1 2,2l0,11a3,3 0 0 1 -3,3zm-3,-3l0,-13l-10,0l0,12c0,1.1 0.9,2 2,2l8.17,0a3,3 0 0 1 -0.17,-1zm-7,-3l4,0a1,1 0 0 1 0,2l-4,0a1,1 0 0 1 0,-2zm0,-4l4,0a1,1 0 0 1 0,2l-4,0a1,1 0 0 1 0,-2zm0,-4l4,0a1,1 0 0 1 0,2l-4,0a1,1 0 1 1 0,-2zm9,11a1,1 0 0 0 2,0l0,-11l-2,0l0,11z" class="heroicon-ui"/>
 </g>
</svg>